<svg width="31" height="31" viewBox="0 0 31 31" fill="none" xmlns="http://www.w3.org/2000/svg">
<path d="M10.3337 28.4167C11.047 28.4167 11.6253 27.8384 11.6253 27.125C11.6253 26.4116 11.047 25.8333 10.3337 25.8333C9.62029 25.8333 9.04199 26.4116 9.04199 27.125C9.04199 27.8384 9.62029 28.4167 10.3337 28.4167Z" stroke="#0C0C0C" stroke-width="2" stroke-linecap="round" stroke-linejoin="round"/>
<path d="M24.5417 28.4167C25.255 28.4167 25.8333 27.8384 25.8333 27.125C25.8333 26.4116 25.255 25.8333 24.5417 25.8333C23.8283 25.8333 23.25 26.4116 23.25 27.125C23.25 27.8384 23.8283 28.4167 24.5417 28.4167Z" stroke="#0C0C0C" stroke-width="2" stroke-linecap="round" stroke-linejoin="round"/>
<path d="M2.64844 2.64792H5.23177L8.6676 18.6904C8.79364 19.2779 9.12055 19.8032 9.59207 20.1757C10.0636 20.5481 10.6502 20.7446 11.2509 20.7313H23.8834C24.4714 20.7303 25.0414 20.5288 25.4993 20.1601C25.9573 19.7914 26.2758 19.2775 26.4022 18.7033L28.5334 9.10625H6.61385" stroke="#0C0C0C" stroke-width="2" stroke-linecap="round" stroke-linejoin="round"/>
</svg>
