<svg width="22" height="22" viewBox="0 0 22 22" fill="none" xmlns="http://www.w3.org/2000/svg">
<g clip-path="url(#clip0_108_380)">
<path d="M11 22C4.93436 22 0 17.0656 0 11C0 4.93436 4.93436 0 11 0C17.0656 0 22 4.93436 22 11C22 17.0656 17.0656 22 11 22ZM11 1.375C5.69252 1.375 1.375 5.69252 1.375 11C1.375 16.3075 5.69252 20.625 11 20.625C16.3075 20.625 20.625 16.3075 20.625 11C20.625 5.69252 16.3075 1.375 11 1.375Z" fill="#323232"/>
<path d="M7.59749 15.0901C7.42142 15.0901 7.24535 15.0233 7.11157 14.8885C6.84302 14.6199 6.84302 14.1846 7.11157 13.916L13.9178 7.10965C14.1865 6.84109 14.6219 6.84109 14.8904 7.10965C15.159 7.3782 15.159 7.8136 14.8904 8.08232L8.08408 14.8885C7.94846 15.0233 7.77255 15.0901 7.59749 15.0901Z" fill="#323232"/>
<path d="M14.4027 15.0901C14.2267 15.0901 14.0507 15.0233 13.9169 14.8885L7.11072 8.08316C6.842 7.81461 6.842 7.37922 7.11072 7.11066C7.37928 6.84194 7.81467 6.84194 8.08323 7.11066L14.8894 13.9168C15.1581 14.1854 15.1581 14.6208 14.8894 14.8893C14.7548 15.0233 14.5787 15.0901 14.4027 15.0901Z" fill="#323232"/>
</g>
<defs>
<clipPath id="clip0_108_380">
<rect width="22" height="22" fill="white"/>
</clipPath>
</defs>
</svg>
