<svg width="49" height="49" viewBox="0 0 49 49" fill="none" xmlns="http://www.w3.org/2000/svg">
<path d="M24.4997 26.5416C25.6273 26.5416 26.5413 25.6275 26.5413 24.4999C26.5413 23.3723 25.6273 22.4583 24.4997 22.4583C23.3721 22.4583 22.458 23.3723 22.458 24.4999C22.458 25.6275 23.3721 26.5416 24.4997 26.5416Z" stroke="white" stroke-width="2" stroke-linecap="round" stroke-linejoin="round"/>
<path d="M41.2413 41.2417C45.4063 37.0972 41.2821 26.2151 32.0538 16.9459C22.7846 7.71757 11.9025 3.59341 7.75792 7.75841C3.59292 11.903 7.71708 22.7851 16.9454 32.0542C26.2146 41.2826 37.0967 45.4067 41.2413 41.2417Z" stroke="white" stroke-width="2" stroke-linecap="round" stroke-linejoin="round"/>
<path d="M32.0538 32.0542C41.2821 22.7851 45.4063 11.903 41.2413 7.75841C37.0967 3.59341 26.2146 7.71757 16.9454 16.9459C7.71708 26.2151 3.59292 37.0972 7.75792 41.2417C11.9025 45.4067 22.7846 41.2826 32.0538 32.0542Z" stroke="white" stroke-width="2" stroke-linecap="round" stroke-linejoin="round"/>
</svg>
