<svg width="49" height="49" viewBox="0 0 49 49" fill="none" xmlns="http://www.w3.org/2000/svg">
<path d="M8.16699 26.5418C15.3128 22.4584 24.5003 22.4584 28.5837 30.6251C30.3112 29.7431 32.2377 29.3237 34.1755 29.4076C36.1133 29.4915 37.9964 30.0759 39.6412 31.1039C41.286 32.1319 42.6365 33.5684 43.5611 35.2735C44.4856 36.9786 44.9528 38.8941 44.917 40.8334" stroke="white" stroke-width="2" stroke-linecap="round" stroke-linejoin="round"/>
<path d="M10.5143 36.5253C21.7843 33.422 28.1747 22.4583 24.8059 12.0253C23.5809 8.16658 23.4788 4.08325 26.5413 4.08325C33.1155 4.08325 36.7497 15.3124 36.7497 20.4166C36.7497 33.6874 28.1747 44.9166 15.3326 44.9166C10.4326 44.9166 4.08301 44.9166 4.08301 40.8332C4.08301 37.7707 6.41051 37.6687 10.5143 36.5253Z" stroke="white" stroke-width="2" stroke-linecap="round" stroke-linejoin="round"/>
</svg>
