<svg width="49" height="49" viewBox="0 0 49 49" fill="none" xmlns="http://www.w3.org/2000/svg">
<path d="M20.4163 44.9167V14.2917C20.4163 13.7502 20.2012 13.2309 19.8184 12.848C19.4355 12.4651 18.9162 12.25 18.3747 12.25H8.16634C7.08337 12.25 6.04476 12.6802 5.27899 13.446C4.51321 14.2118 4.08301 15.2504 4.08301 16.3333V40.8333C4.08301 41.9163 4.51321 42.9549 5.27899 43.7207C6.04476 44.4865 7.08337 44.9167 8.16634 44.9167H32.6663C33.7493 44.9167 34.7879 44.4865 35.5537 43.7207C36.3195 42.9549 36.7497 41.9163 36.7497 40.8333V30.625C36.7497 30.0835 36.5346 29.5642 36.1517 29.1813C35.7688 28.7984 35.2495 28.5833 34.708 28.5833H4.08301" stroke="white" stroke-width="2" stroke-linecap="round" stroke-linejoin="round"/>
<path d="M42.8747 4.08325H30.6247C29.4971 4.08325 28.583 4.99734 28.583 6.12492V18.3749C28.583 19.5025 29.4971 20.4166 30.6247 20.4166H42.8747C44.0023 20.4166 44.9163 19.5025 44.9163 18.3749V6.12492C44.9163 4.99734 44.0023 4.08325 42.8747 4.08325Z" stroke="white" stroke-width="2" stroke-linecap="round" stroke-linejoin="round"/>
</svg>
