<svg width="49" height="49" viewBox="0 0 49 49" fill="none" xmlns="http://www.w3.org/2000/svg">
<path d="M28.583 36.7501V12.2501C28.583 11.1671 28.1528 10.1285 27.387 9.36273C26.6213 8.59695 25.5826 8.16675 24.4997 8.16675H8.16634C7.08337 8.16675 6.04476 8.59695 5.27899 9.36273C4.51321 10.1285 4.08301 11.1671 4.08301 12.2501V34.7084C4.08301 35.2499 4.29811 35.7692 4.681 36.1521C5.06388 36.535 5.58319 36.7501 6.12467 36.7501H10.208" stroke="white" stroke-width="2" stroke-linecap="round" stroke-linejoin="round"/>
<path d="M30.625 36.75H18.375" stroke="white" stroke-width="2" stroke-linecap="round" stroke-linejoin="round"/>
<path d="M38.7913 36.7499H42.8747C43.4162 36.7499 43.9355 36.5348 44.3184 36.1519C44.7012 35.769 44.9163 35.2497 44.9163 34.7083V27.2562C44.9155 26.7928 44.7571 26.3436 44.4672 25.9822L37.3622 17.1009C37.1712 16.8618 36.929 16.6687 36.6533 16.5358C36.3777 16.4029 36.0757 16.3337 35.7697 16.3333H28.583" stroke="white" stroke-width="2" stroke-linecap="round" stroke-linejoin="round"/>
<path d="M34.7083 40.8334C36.9635 40.8334 38.7917 39.0052 38.7917 36.7501C38.7917 34.4949 36.9635 32.6667 34.7083 32.6667C32.4532 32.6667 30.625 34.4949 30.625 36.7501C30.625 39.0052 32.4532 40.8334 34.7083 40.8334Z" stroke="white" stroke-width="2" stroke-linecap="round" stroke-linejoin="round"/>
<path d="M14.2913 40.8334C16.5465 40.8334 18.3747 39.0052 18.3747 36.7501C18.3747 34.4949 16.5465 32.6667 14.2913 32.6667C12.0362 32.6667 10.208 34.4949 10.208 36.7501C10.208 39.0052 12.0362 40.8334 14.2913 40.8334Z" stroke="white" stroke-width="2" stroke-linecap="round" stroke-linejoin="round"/>
</svg>
