<svg width="49" height="49" viewBox="0 0 49 49" fill="none" xmlns="http://www.w3.org/2000/svg">
<path d="M22.4583 30.6249H26.5417C27.6246 30.6249 28.6632 30.1947 29.429 29.4289C30.1948 28.6632 30.625 27.6246 30.625 26.5416C30.625 25.4586 30.1948 24.42 29.429 23.6542C28.6632 22.8885 27.6246 22.4583 26.5417 22.4583H20.4167C19.1917 22.4583 18.1708 22.8666 17.5583 23.6833L6.125 34.7083" stroke="white" stroke-width="2" stroke-linecap="round" stroke-linejoin="round"/>
<path d="M14.292 42.8751L17.5587 40.0167C18.1712 39.2001 19.192 38.7917 20.417 38.7917H28.5837C30.8295 38.7917 32.8712 37.9751 34.3003 36.3417L43.692 27.3584C44.4799 26.6139 44.9397 25.5868 44.9703 24.5033C45.0009 23.4197 44.5999 22.3683 43.8553 21.5805C43.1108 20.7926 42.0838 20.3328 41.0002 20.3022C39.9166 20.2715 38.8653 20.6726 38.0774 21.4171L29.5024 29.3797" stroke="white" stroke-width="2" stroke-linecap="round" stroke-linejoin="round"/>
<path d="M4.08301 32.6667L16.333 44.9167" stroke="white" stroke-width="2" stroke-linecap="round" stroke-linejoin="round"/>
<path d="M32.6669 24.2958C35.9369 24.2958 38.5878 21.6449 38.5878 18.3749C38.5878 15.1049 35.9369 12.4541 32.6669 12.4541C29.3969 12.4541 26.7461 15.1049 26.7461 18.3749C26.7461 21.6449 29.3969 24.2958 32.6669 24.2958Z" stroke="white" stroke-width="2" stroke-linecap="round" stroke-linejoin="round"/>
<path d="M12.25 16.3333C15.6327 16.3333 18.375 13.591 18.375 10.2083C18.375 6.82551 15.6327 4.08325 12.25 4.08325C8.86726 4.08325 6.125 6.82551 6.125 10.2083C6.125 13.591 8.86726 16.3333 12.25 16.3333Z" stroke="white" stroke-width="2" stroke-linecap="round" stroke-linejoin="round"/>
</svg>
