<svg width="49" height="49" viewBox="0 0 49 49" fill="none" xmlns="http://www.w3.org/2000/svg">
<path d="M40.8337 26.5418C40.8337 36.7501 33.6878 41.8543 25.1945 44.8147C24.7497 44.9654 24.2666 44.9582 23.8266 44.7943C15.3128 41.8543 8.16699 36.7501 8.16699 26.5418V12.2501C8.16699 11.7086 8.3821 11.1893 8.76498 10.8064C9.14787 10.4235 9.66718 10.2084 10.2087 10.2084C14.292 10.2084 19.3962 7.75844 22.9487 4.6551C23.3812 4.28556 23.9314 4.08252 24.5003 4.08252C25.0692 4.08252 25.6195 4.28556 26.052 4.6551C29.6249 7.77885 34.7087 10.2084 38.792 10.2084C39.3335 10.2084 39.8528 10.4235 40.2357 10.8064C40.6186 11.1893 40.8337 11.7086 40.8337 12.2501V26.5418Z" stroke="white" stroke-width="2" stroke-linecap="round" stroke-linejoin="round"/>
<path d="M18.375 24.5001L22.4583 28.5834L30.625 20.4167" stroke="white" stroke-width="2" stroke-linecap="round" stroke-linejoin="round"/>
</svg>
