<svg width="49" height="49" viewBox="0 0 49 49" fill="none" xmlns="http://www.w3.org/2000/svg">
<path d="M36.7497 25.5208V20.4166C36.7497 19.3336 36.3195 18.295 35.5537 17.5292C34.7879 16.7635 33.7493 16.3333 32.6663 16.3333C31.5834 16.3333 30.5448 16.7635 29.779 17.5292C29.0132 18.295 28.583 19.3336 28.583 20.4166V23.2749" stroke="white" stroke-width="2" stroke-linecap="round" stroke-linejoin="round"/>
<path d="M28.5837 22.4584V18.3751C28.5837 17.2921 28.1535 16.2535 27.3877 15.4877C26.6219 14.722 25.5833 14.2917 24.5003 14.2917C23.4174 14.2917 22.3787 14.722 21.613 15.4877C20.8472 16.2535 20.417 17.2921 20.417 18.3751V22.4584" stroke="white" stroke-width="2" stroke-linecap="round" stroke-linejoin="round"/>
<path d="M20.4167 21.4375V10.2083C20.4167 9.12537 19.9865 8.08675 19.2207 7.32098C18.4549 6.55521 17.4163 6.125 16.3333 6.125C15.2504 6.125 14.2118 6.55521 13.446 7.32098C12.6802 8.08675 12.25 9.12537 12.25 10.2083V28.5833" stroke="white" stroke-width="2" stroke-linecap="round" stroke-linejoin="round"/>
<path d="M14.292 30.6249L10.6987 27.0316C9.92321 26.3264 8.90621 25.9464 7.85828 25.9703C6.81035 25.9942 5.81176 26.4203 5.06926 27.1601C4.32676 27.9 3.89722 28.8971 3.86959 29.9449C3.84195 30.9928 4.21833 32.0111 4.92079 32.7891L12.2708 40.1391C15.3129 43.1607 18.7837 44.9166 24.5004 44.9166H28.5837C32.9156 44.9166 37.07 43.1958 40.1331 40.1327C43.1962 37.0696 44.917 32.9151 44.917 28.5833V14.2916C44.917 13.2086 44.4868 12.17 43.7211 11.4042C42.9553 10.6385 41.9167 10.2083 40.8337 10.2083C39.7507 10.2083 38.7121 10.6385 37.9464 11.4042C37.1806 12.17 36.7504 13.2086 36.7504 14.2916V24.4999" stroke="white" stroke-width="2" stroke-linecap="round" stroke-linejoin="round"/>
</svg>
