<svg width="49" height="49" viewBox="0 0 49 49" fill="none" xmlns="http://www.w3.org/2000/svg">
<path d="M30.6247 4.08325H18.3747C17.2471 4.08325 16.333 4.99734 16.333 6.12492V10.2083C16.333 11.3358 17.2471 12.2499 18.3747 12.2499H30.6247C31.7523 12.2499 32.6663 11.3358 32.6663 10.2083V6.12492C32.6663 4.99734 31.7523 4.08325 30.6247 4.08325Z" stroke="white" stroke-width="2" stroke-linecap="round" stroke-linejoin="round"/>
<path d="M32.667 8.16675H36.7503C37.8333 8.16675 38.8719 8.59695 39.6377 9.36273C40.4035 10.1285 40.8337 11.1671 40.8337 12.2501V40.8334C40.8337 41.9164 40.4035 42.955 39.6377 43.7208C38.8719 44.4865 37.8333 44.9167 36.7503 44.9167H12.2503C11.1674 44.9167 10.1287 44.4865 9.36297 43.7208C8.5972 42.955 8.16699 41.9164 8.16699 40.8334V12.2501C8.16699 11.1671 8.5972 10.1285 9.36297 9.36273C10.1287 8.59695 11.1674 8.16675 12.2503 8.16675H16.3337" stroke="white" stroke-width="2" stroke-linecap="round" stroke-linejoin="round"/>
<path d="M24.5 22.4583H32.6667" stroke="white" stroke-width="2" stroke-linecap="round" stroke-linejoin="round"/>
<path d="M24.5 32.6667H32.6667" stroke="white" stroke-width="2" stroke-linecap="round" stroke-linejoin="round"/>
<path d="M16.333 22.4583H16.3534" stroke="white" stroke-width="2" stroke-linecap="round" stroke-linejoin="round"/>
<path d="M16.333 32.6667H16.3534" stroke="white" stroke-width="2" stroke-linecap="round" stroke-linejoin="round"/>
</svg>
